<svg width="200" height="200" viewBox="0 0 200 200" xmlns="http://www.w3.org/2000/svg">
  <!-- Face -->
  <ellipse cx="100" cy="100" rx="70" ry="60" fill="#9e7b5f"/>
  
  <!-- Ears -->
  <path d="M40 70 Q25 50 40 30 Q45 25 55 30 Q65 40 55 70 Z" fill="#9e7b5f"/>
  <path d="M160 70 Q175 50 160 30 Q155 25 145 30 Q135 40 145 70 Z" fill="#9e7b5f"/>
  
  <!-- Inner Ears -->
  <path d="M45 65 Q35 50 45 35 Q50 40 50 65 Z" fill="#3a2a1e"/>
  <path d="M155 65 Q165 50 155 35 Q150 40 150 65 Z" fill="#3a2a1e"/>
  
  <!-- Hair/Mane -->
  <path d="M90 40 Q100 25 110 40 Q115 30 120 40 Q125 25 130 40 Q115 50 90 40 Z" fill="#5d4037"/>
  
  <!-- Eyes -->
  <ellipse cx="70" cy="80" rx="10" ry="15" fill="#3a2a1e"/>
  <ellipse cx="130" cy="80" rx="10" ry="15" fill="#3a2a1e"/>
  
  <!-- Snout -->
  <ellipse cx="100" cy="115" rx="30" ry="25" fill="#ffa6c9"/>
  
  <!-- Nostrils -->
  <ellipse cx="85" cy="115" rx="8" ry="10" fill="#8d5d76"/>
  <ellipse cx="115" cy="115" rx="8" ry="10" fill="#8d5d76"/>
  
  <!-- Tusks/Chin -->
  <path d="M40 110 Q70 150 100 140 Q130 150 160 110" fill="none" stroke="#9e7b5f" stroke-width="8"/>
</svg>